<svg xmlns="http://www.w3.org/2000/svg" viewBox="481.8 3052.4 327.27 68.59999999999991" width="327.27" height="68.59999999999991" preserveAspectRatio="none">
<!-- lateral esquerda — band-bottom
     327.3 x 68.6 u = 1158 x 243 mm
     Recortado de "layout 15,40 para teste.svg" por tools/livery-svg/slice.mjs.
     Coordenadas ORIGINAIS da prancha; o recorte e o viewBox. -->
<style>.cls-17,.cls-19{fill: none;}.cls-49{fill-rule: evenodd;}.cls-17,.cls-19{stroke-miterlimit: 22.93;}.cls-19{stroke-width: .5px;}.cls-51{fill: #d2d4d5;}.cls-49{fill: #292929;}.cls-56{fill: url(#Gradiente_sem_nome_23);}.cls-59{fill: url(#Gradiente_sem_nome_22);}.cls-71{fill: url(#Gradiente_sem_nome_21);}.cls-17,.cls-19{stroke: #373535;}.cls-17{stroke-width: .22px;}.cls-137{fill: #ae3340;}.cls-139{fill: #96989b;}</style>
<defs><linearGradient id="Gradiente_sem_nome_21" data-name="Gradiente sem nome 21" x1="2657.31" y1="3110.76" x2="2657.31" y2="3100.84" gradientUnits="userSpaceOnUse">
      <stop offset="0" stop-color="#606163"/>
      <stop offset=".58" stop-color="#fff"/>
      <stop offset="1" stop-color="#fff"/>
    </linearGradient><linearGradient id="Gradiente_sem_nome_22" data-name="Gradiente sem nome 22" x1="2657.31" y1="3078.28" x2="2657.31" y2="3068.36" gradientUnits="userSpaceOnUse">
      <stop offset="0" stop-color="#606163"/>
      <stop offset=".58" stop-color="#fff"/>
      <stop offset="1" stop-color="#fff"/>
    </linearGradient><linearGradient id="Gradiente_sem_nome_23" data-name="Gradiente sem nome 23" x1="653.94" y1="2567.73" x2="270.89" y2="2878.47" gradientUnits="userSpaceOnUse">
      <stop offset="0" stop-color="#fff"/>
      <stop offset=".4" stop-color="#96989b"/>
      <stop offset="1" stop-color="#fff"/>
    </linearGradient></defs>
<path class="cls-49" d="M1435.25,3120.88h3412.2l-9.79,10.98-66.71,12.6-213.08.14h-163.57v.11l-234.82.16c-295.44,2.3-598.86,16.84-780.13,53.65H453.59v-77.64h981.66Z"/>
<path class="cls-19" d="M1435.25,3120.88h3412.2l-9.79,10.98-66.71,12.6-213.08.14h-163.57v.11l-234.82.16c-295.44,2.3-598.86,16.84-780.13,53.65H453.59v-77.64h981.66Z"/>
<rect class="cls-51" x="481.89" y="3052.73" width="4350.85" height="68.15"/>
<rect class="cls-17" x="481.89" y="3052.73" width="4350.85" height="68.15"/>
<rect class="cls-71" x="481.89" y="3101.97" width="4350.85" height="9.36"/>
<rect class="cls-59" x="481.89" y="3069.49" width="4350.85" height="9.36"/>
<rect class="cls-139" x="492.55" y="3083.5" width="75.01" height="13.63"/>
<rect class="cls-137" x="492.55" y="3083.5" width="37.51" height="13.63"/>
<rect class="cls-56" x="453.59" y="2316.68" width="28.3" height="804.2"/>
</svg>
