<svg xmlns="http://www.w3.org/2000/svg" viewBox="1461.2 1291.8 327.27 68" width="327.27" height="68" preserveAspectRatio="none">
<!-- lateral direita — band-bottom
     327.3 x 68.0 u = 1158 x 241 mm
     Recortado de "layout 15,40 para teste.svg" por tools/livery-svg/slice.mjs.
     Coordenadas ORIGINAIS da prancha; o recorte e o viewBox. -->
<style>.cls-17,.cls-19{fill: none;}.cls-49{fill-rule: evenodd;}.cls-17,.cls-19{stroke-miterlimit: 22.93;}.cls-19{stroke-width: .5px;}.cls-51{fill: #d2d4d5;}.cls-49{fill: #292929;}.cls-75{fill: url(#Gradiente_sem_nome_4);}.cls-79{fill: url(#Gradiente_sem_nome_7);}.cls-80{fill: url(#Gradiente_sem_nome_5);}.cls-17,.cls-19{stroke: #373535;}.cls-17{stroke-width: .22px;}.cls-137{fill: #ae3340;}.cls-139{fill: #96989b;}</style>
<defs><linearGradient id="Gradiente_sem_nome_4" data-name="Gradiente sem nome 4" x1="3636.58" y1="1349.64" x2="3636.58" y2="1339.71" gradientUnits="userSpaceOnUse">
      <stop offset="0" stop-color="#606163"/>
      <stop offset=".58" stop-color="#fff"/>
      <stop offset="1" stop-color="#fff"/>
    </linearGradient><linearGradient id="Gradiente_sem_nome_5" data-name="Gradiente sem nome 5" x1="3636.58" y1="1317.15" x2="3636.58" y2="1307.23" gradientUnits="userSpaceOnUse">
      <stop offset="0" stop-color="#606163"/>
      <stop offset=".58" stop-color="#fff"/>
      <stop offset="1" stop-color="#fff"/>
    </linearGradient><linearGradient id="Gradiente_sem_nome_7" data-name="Gradiente sem nome 7" x1="1266.43" y1="823.41" x2="1640.54" y2="1099.58" gradientUnits="userSpaceOnUse">
      <stop offset="0" stop-color="#fff"/>
      <stop offset=".4" stop-color="#96989b"/>
      <stop offset="1" stop-color="#fff"/>
    </linearGradient></defs>
<path class="cls-49" d="M4858.64,1359.75H1446.44l9.79,10.98,66.71,12.6,213.08.14h163.57v.11l234.82.16c295.44,2.3,598.86,16.84,780.13,53.65h2925.77v-77.64h-981.66Z"/>
<path class="cls-19" d="M4858.64,1359.75H1446.44l9.79,10.98,66.71,12.6,213.08.14h163.57v.11l234.82.16c295.44,2.3,598.86,16.84,780.13,53.65h2925.77v-77.64h-981.66Z"/>
<rect class="cls-51" x="1461.16" y="1291.6" width="4350.85" height="68.15"/>
<rect class="cls-17" x="1461.16" y="1291.6" width="4350.85" height="68.15"/>
<rect class="cls-75" x="1461.16" y="1340.84" width="4350.85" height="9.36"/>
<rect class="cls-80" x="1461.16" y="1308.36" width="4350.85" height="9.36"/>
<rect class="cls-139" x="1471.82" y="1322.37" width="75.01" height="13.63"/>
<rect class="cls-137" x="1471.82" y="1322.37" width="37.51" height="13.63"/>
<rect class="cls-79" x="1435.41" y="555.55" width="25.75" height="804.2"/>
</svg>
